<?xml version="1.0" encoding="utf-8"?>
<!-- Generator: Adobe Illustrator 16.0.0, SVG Export Plug-In . SVG Version: 6.00 Build 0)  -->
<!DOCTYPE svg PUBLIC "-//W3C//DTD SVG 1.1//EN" "http://www.w3.org/Graphics/SVG/1.1/DTD/svg11.dtd">
<svg version="1.1" id="Layer_1" xmlns="http://www.w3.org/2000/svg" xmlns:xlink="http://www.w3.org/1999/xlink" x="0px" y="0px"
	 width="350px" height="348px" viewBox="0 0 350 348" style="enable-background:new 0 0 350 348;" xml:space="preserve">
<g>
	<path d="M75.354,262.558V85.156h40.036c10.562,0,20.089,2.782,28.577,8.347c7.262,4.717,12.449,12.024,15.562,21.928
		c1.697,5.282,2.546,11.554,2.546,18.815c0,11.883-3.161,21.41-9.479,28.576c-2.642,3.02-5.754,5.329-9.337,6.932
		c5.941,2.264,10.986,6.744,15.137,13.44c2.734,4.526,4.761,10.375,6.083,17.542c0.659,3.678,0.99,7.78,0.99,12.308
		c0,11.225-2.122,20.75-6.366,28.576c-3.302,6.133-7.971,11.035-14.005,14.713c-6.791,4.152-13.535,6.225-20.23,6.225H75.354z
		 M104.213,157.588h11.176c8.298,0,13.864-4.054,16.693-12.166c1.037-3.018,1.556-6.742,1.556-11.176
		c0-7.356-1.792-12.921-5.375-16.693c-3.303-3.488-7.593-5.234-12.874-5.234h-11.176V157.588z M104.213,236.104h11.176
		c9.054,0,15.325-4.669,18.815-14.005c1.225-3.205,1.839-6.884,1.839-11.035c0-9.903-1.888-17.118-5.659-21.645
		c-3.396-4.149-8.396-6.225-14.996-6.225h-11.176V236.104z"/>
	<path d="M183.548,262.558V85.156h40.037c10.561,0,20.088,2.782,28.576,8.347c7.262,4.717,12.449,12.024,15.561,21.928
		c1.699,5.282,2.547,11.554,2.547,18.815c0,11.883-3.16,21.41-9.479,28.576c-2.641,3.02-5.754,5.329-9.336,6.932
		c5.941,2.264,10.984,6.744,15.137,13.44c2.734,4.526,4.762,10.375,6.082,17.542c0.66,3.678,0.992,7.78,0.992,12.308
		c0,11.225-2.123,20.75-6.367,28.576c-3.303,6.133-7.971,11.035-14.006,14.713c-6.789,4.152-13.533,6.225-20.229,6.225H183.548z
		 M212.407,157.588h11.178c8.297,0,13.863-4.054,16.693-12.166c1.035-3.018,1.555-6.742,1.555-11.176
		c0-7.356-1.793-12.921-5.375-16.693c-3.303-3.488-7.594-5.234-12.873-5.234h-11.178V157.588z M212.407,236.104h11.178
		c9.053,0,15.324-4.669,18.814-14.005c1.225-3.205,1.84-6.884,1.84-11.035c0-9.903-1.889-17.118-5.66-21.645
		c-3.395-4.149-8.395-6.225-14.994-6.225h-11.178V236.104z"/>
</g>
<rect x="8.5" y="7.5" style="fill:none;stroke:#000000;stroke-miterlimit:10;" width="332" height="332"/>
</svg>
